<?xml version="1.0" standalone="no"?><!DOCTYPE svg PUBLIC "-//W3C//DTD SVG 1.1//EN" "http://www.w3.org/Graphics/SVG/1.1/DTD/svg11.dtd"><svg t="1694439489730" class="icon" viewBox="0 0 1024 1024" version="1.1" xmlns="http://www.w3.org/2000/svg" p-id="25561" xmlns:xlink="http://www.w3.org/1999/xlink" width="128" height="128"><path d="M300.05592 0h423.88816c200.041092 0 300.05592 100.014829 300.05592 300.05592v423.88816c0 200.041092-100.014829 300.05592-300.05592 300.05592H300.05592C100.014829 1024 0 923.973737 0 723.94408V300.05592C0 100.014829 100.014829 0 300.05592 0z" fill="#e8c702" opacity=".15" p-id="25562"></path><path d="M742.70758 318.968065c-63.242485-63.242485-163.73755-66.283979-230.719014-9.376033-66.981464-56.907946-167.476529-53.866452-230.719014 9.376033-66.569833 66.569833-66.569833 174.508553 0 241.089821l219.925142 190.802269a16.453794 16.453794 0 0 0 21.57631 0l219.925141-190.802269c66.569833-66.569833 66.569833-174.508553 0-241.089821z" fill="#e8c702" p-id="25563"></path><path d="M305.201304 444.869891c-11.136898 0-20.295681-8.895797-20.570101-20.089865-1.635089-68.284961 86.202332-102.084416 89.94131-103.490821 10.645228-4.001965 22.502479 1.383537 26.504444 12.028764 3.990531 10.633793-1.372102 22.479611-11.994461 26.49301-0.84613 0.331591-64.225825 25.589709-63.31109 63.985707 0.27442 11.365581-8.724284 20.798785-20.078432 21.073205h-0.503104z" fill="#e8c702" p-id="25564"></path></svg>