<?xml version="1.0" standalone="no"?><!DOCTYPE svg PUBLIC "-//W3C//DTD SVG 1.1//EN" "http://www.w3.org/Graphics/SVG/1.1/DTD/svg11.dtd"><svg t="1694439398591" class="icon" viewBox="0 0 1024 1024" version="1.1" xmlns="http://www.w3.org/2000/svg" p-id="21166" xmlns:xlink="http://www.w3.org/1999/xlink" width="128" height="128"><path d="M383 545h13.92v14H383z" fill="#e8c702" fill-opacity="0" p-id="21167"></path><path d="M868.8 66.17H153.61c-49.37 0-89.4 40.03-89.4 89.4v715.19c0 49.37 40.03 89.4 89.4 89.4H868.8c49.37 0 89.4-40.03 89.4-89.4V155.57c0-49.37-40.03-89.4-89.4-89.4zM276.77 286.65h117.95v-33.74h51.47v33.74H575.9v-33.74h51.51v33.74h117.95v46.66H627.41v34.83H575.9v-34.83H446.19v34.31h-51.47v-34.31H276.77v-46.66z m132.97 461.62h-48.78V570.78c-19.84 17.16-40.75 33.26-63.27 48.28l-32.15-41.82c60.04-38.59 106.68-82.59 141-131.87H285.35V398.7H434.4c5.89-12.31 11.26-24.66 16.09-36.45l49.3 8.6c-3.21 9.65-6.96 18.73-10.72 27.85h253.57v46.66H466.03c-16.09 27.33-34.86 53.04-56.29 77.7v225.21z m336.14-115.81H633.82v66.48c0 31.6-16.11 47.71-47.71 47.71h-64.87l-15.02-49.33c25.21 2.14 45.03 3.19 59.54 3.19 10.69 0 16.59-5.33 16.59-16.06v-51.99H440.29v-48.28h142.06v-25.71c13.97-9.12 32.7-20.91 56.31-35.4H477.81v-46.1h233.75v36.45c-22.52 17.72-48.8 37.02-77.74 58.45v12.31h112.05v48.28z" fill="#e8c702" p-id="21168"></path></svg>