<?xml version="1.0" standalone="no"?><!DOCTYPE svg PUBLIC "-//W3C//DTD SVG 1.1//EN" "http://www.w3.org/Graphics/SVG/1.1/DTD/svg11.dtd"><svg t="1694439507372" class="icon" viewBox="0 0 1130 1024" version="1.1" xmlns="http://www.w3.org/2000/svg" p-id="27623" width="141.25" height="128" xmlns:xlink="http://www.w3.org/1999/xlink"><path d="M0 0h7.764525v927.101783H0zM7.764525 0h97.826466v927.101783H7.764525z" fill="#EDB05F" p-id="27624"></path><path d="M105.601911 0h97.826465v927.101783H105.601911z" fill="#EEB15E" p-id="27625"></path><path d="M203.428376 0h97.826466v927.101783h-97.826466z" fill="#EFB15D" p-id="27626"></path><path d="M301.265762 0h97.826466v927.101783h-97.826466z" fill="#F0B25C" p-id="27627"></path><path d="M399.092228 0h97.826465v927.101783h-97.826465z" fill="#F1B25A" p-id="27628"></path><path d="M496.929614 0h97.826465v927.101783h-97.826465z" fill="#F1B359" p-id="27629"></path><path d="M594.756079 0h97.826465v927.101783h-97.826465z" fill="#F2B358" p-id="27630"></path><path d="M692.593465 0h97.826465v927.101783h-97.826465z" fill="#F3B457" p-id="27631"></path><path d="M790.41993 0h97.826465v927.101783h-97.826465zM888.257316 0h38.844467v927.101783h-38.844467z" fill="#F4B456" p-id="27632"></path><path d="M681.58553 582.066377L491.207235 683.955294l-6.683389 3.581947" fill="#FFFFFF" opacity=".33" p-id="27633"></path><path d="M535.413702 445.559253H710.929102v97.269516a0.414982 0.414982 0 0 1-0.414982 0.414982H535.413702a11.848818 11.848818 0 0 1-11.848818-11.848819v-73.997782A11.848818 11.848818 0 0 1 535.413702 445.559253z" fill="#F4B456" p-id="27634"></path><path d="M76.170975 354.929443a10.625715 10.625715 0 0 1 6.792595-11.346472l637.630236-240.252538a10.636635 10.636635 0 0 1 14.295026 8.561726l73.167818 551.816398a10.636635 10.636635 0 0 1-11.018855 12.012627l-682.328129-30.249978z" fill="#FFE8AC" opacity=".57" p-id="27635"></path><path d="M550.200154 886.116884a69.007081 69.007081 0 0 1-17.931576-2.347922l-319.666923-86.403549a68.548417 68.548417 0 0 1-48.279839-83.957342l54.952307-203.341012a68.570259 68.570259 0 0 1 83.968262-48.257998l319.677844 86.359867a68.548417 68.548417 0 0 1 48.247078 83.968262L616.24776 835.467281a68.657623 68.657623 0 0 1-66.047606 50.649603zM262.748912 712.709155l268.83167 72.621789 41.170548-152.505758-268.831669-72.62179z" fill="#FFE8AC" opacity=".57" p-id="27636"></path><path d="M75.286409 284.469926a10.636635 10.636635 0 0 1 8.223189-10.363621L747.185394 119.820493a10.636635 10.636635 0 0 1 13.050081 10.3527v556.654211a10.636635 10.636635 0 0 1-12.504053 10.472826L75.286409 577.556181z" fill="#FFE8AC" p-id="27637"></path><path d="M559.482638 853.46438a69.389301 69.389301 0 0 1-9.118676-0.611552l-328.25049-43.573074a68.559338 68.559338 0 0 1-58.883713-76.891733l27.716406-208.790376a68.559338 68.559338 0 0 1 76.891733-58.872792l328.25049 43.573074a68.526576 68.526576 0 0 1 58.872793 76.891733l-27.705486 208.790376a68.581179 68.581179 0 0 1-67.773057 59.484344zM260.684924 718.75915l276.028326 36.649433 20.749083-156.600973-275.984643-36.638512z" fill="#FFE8AC" p-id="27638"></path></svg>