<?xml version="1.0" standalone="no"?><!DOCTYPE svg PUBLIC "-//W3C//DTD SVG 1.1//EN" "http://www.w3.org/Graphics/SVG/1.1/DTD/svg11.dtd"><svg t="1694439545004" class="icon" viewBox="0 0 1448 1024" version="1.1" xmlns="http://www.w3.org/2000/svg" p-id="30782" xmlns:xlink="http://www.w3.org/1999/xlink" width="181" height="128"><path d="M739.668324 17.685365h531.417605c37.62591 0 68.128477 27.001962 68.128478 60.303292V948.242441c0 33.308211-30.502567 60.299852-68.128478 60.299852h-1094.57976C138.880258 1008.542293 108.372531 981.552372 108.372531 948.242441V77.986937c0-33.30133 30.506007-60.303293 68.133638-60.303292l563.162155 0.00172z" fill="#DCE4F7" p-id="30783"></path><path d="M1271.085929 50.271093c19.267948 0 35.54619 12.693348 35.54619 27.717564V948.242441c0 15.022497-16.278242 27.715845-35.54619 27.715844h-1094.57976c-19.269668 0-35.54791-12.693348-35.547911-27.715844V77.986937c0-15.025937 16.278242-27.717565 35.547911-27.717565h1094.57976v0.001721z m0-32.585728h-1094.57976c-37.62591 0-68.131918 27.001962-68.131918 60.301572V948.242441c0 33.308211 30.506007 60.299852 68.131918 60.299852h1094.57976c37.62591 0 68.128477-26.989921 68.128478-60.299852V77.986937c0-33.29961-30.502567-60.301572-68.128478-60.301572" fill="#333333" p-id="30784"></path><path d="M583.278162 207.468028h596.465206c26.63556 0 48.232657 18.867142 48.232657 42.139713v627.28601c0 23.272571-21.597097 42.137992-48.232657 42.137992H267.84529c-26.63728 0-48.236097-18.863701-48.236098-42.137992V249.607741c0-23.272571 21.597097-42.139712 48.236098-42.139713h315.432872z" fill="#FFFFFF" p-id="30785"></path><path d="M1179.743368 240.052036c9.552264 0 15.65037 5.657734 15.650369 9.553985v627.28601c0 3.89453-6.098105 9.552264-15.650369 9.552264H267.84701c-9.555705 0-15.65037-5.657734-15.65037-9.552264V249.607741c0-3.896251 6.096385-9.553985 15.65037-9.553985h911.896358v-0.00172z m0-32.584008H267.84701c-26.639 0-48.236097 18.867142-48.236097 42.139713v627.28601c0 23.272571 21.597097 42.136272 48.236097 42.136272h911.896358c26.639 0 48.232657-18.863701 48.232657-42.136272V249.607741c0-23.272571-21.591937-42.139712-48.232657-42.139713m-886.624916-77.992097c-4.360704 13.257573-19.909582 20.84365-34.727376 16.940518-14.816073-3.903131-23.294933-17.81266-18.934229-31.071952s19.909582-20.84365 34.727376-16.940519c14.817793 3.903131 23.294933 17.81266 18.934229 31.071953m99.104099 0c-4.360704 13.257573-19.907862 20.84365-34.727376 16.940518-14.817793-3.901411-23.294933-17.81266-18.934229-31.071952 4.360704-13.259293 19.909582-20.84365 34.727375-16.940519 14.817793 3.903131 23.294933 17.81266 18.93423 31.071953m102.824889 0c-4.360704 13.257573-19.907862 20.84365-34.725655 16.940518-14.819514-3.903131-23.296654-17.81266-18.93595-31.071952 4.360704-13.259293 19.909582-20.84365 34.727376-16.940519 14.819514 3.903131 23.294933 17.81266 18.934229 31.071953" fill="#333333" p-id="30786"></path><path d="M604.575944 351.704986h367.48437c10.89574 0 19.732402 11.217417 19.732402 25.054697v372.982126c0 13.84072-8.836662 25.054697-19.732402 25.054697H475.528343c-10.89746 0-19.732402-11.215697-19.732402-25.054697V376.759683c0-13.83728 8.834942-25.054697 19.732402-25.054697h129.047601z" fill="#DCE4F7" p-id="30787"></path><path d="M959.205268 384.287273v357.923505H488.379949V384.287273h470.825319z m12.855046-32.582287H475.528343c-10.89574 0-19.732402 11.217417-19.732402 25.054697v372.982126c0 13.84072 8.836662 25.054697 19.732402 25.054697h496.531971c10.89574 0 19.732402-11.215697 19.732402-25.054697V376.759683c0-13.83728-8.836662-25.054697-19.732402-25.054697" fill="#4E6CC4" p-id="30788"></path><path d="M670.800161 483.002607c-0.400806-13.150921 11.951942-19.095928 23.903884-6.691574l106.132832 75.533934c5.065986 5.294772 4.861282 13.709985-0.454133 18.794893l-101.596667 80.840747c-7.993764 7.680688-26.174546 8.719688-27.029485-5.931245l-0.956431-162.546755z" fill="#4E6CC4" p-id="30789"></path></svg>